<svg xmlns="http://www.w3.org/2000/svg" width="16" height="12" fill="none"><path fill="#A3A3A3" fill-rule="evenodd" d="M15.638 2.074a.67.67 0 0 1 .362.593v6.666a.667.667 0 0 1-1.054.543l-4.667-3.333a.667.667 0 0 1 0-1.085l4.667-3.334a.67.67 0 0 1 .692-.05M11.814 6l2.853 2.038V3.962z" clip-rule="evenodd"/><path fill="#A3A3A3" fill-rule="evenodd" d="M2 2a.667.667 0 0 0-.667.667v6.666c0 .369.299.667.667.667h7.333A.667.667 0 0 0 10 9.333V2.667A.667.667 0 0 0 9.333 2zm-2 .667a2 2 0 0 1 2-2h7.333a2 2 0 0 1 2 2v6.666a2 2 0 0 1-2 2H2a2 2 0 0 1-2-2z" clip-rule="evenodd"/></svg>