<svg xmlns="http://www.w3.org/2000/svg" width="14" height="16" fill="none"><path fill="#A3A3A3" fill-rule="evenodd" d="M7 1.333a5.333 5.333 0 0 0-5.333 5.334c0 2.065 1.343 4.07 2.817 5.624A19.6 19.6 0 0 0 7 14.516a19.622 19.622 0 0 0 2.516-2.224c1.473-1.555 2.817-3.559 2.817-5.624A5.334 5.334 0 0 0 7 1.333m0 14-.37.555-.002-.002-.005-.002-.015-.01a7 7 0 0 1-.256-.181 20.934 20.934 0 0 1-2.836-2.484C1.989 11.597.333 9.268.333 6.667a6.667 6.667 0 1 1 13.334 0c0 2.601-1.657 4.93-3.183 6.542a21 21 0 0 1-3.037 2.626l-.055.038-.016.01-.004.004h-.001s-.001.001-.371-.554m0 0 .37.555a.67.67 0 0 1-.74 0z" clip-rule="evenodd"/><path fill="#A3A3A3" fill-rule="evenodd" d="M7 5.333A1.333 1.333 0 1 0 7 8a1.333 1.333 0 0 0 0-2.667M4.333 6.667a2.667 2.667 0 1 1 5.334 0 2.667 2.667 0 0 1-5.334 0" clip-rule="evenodd"/></svg>